# xmcd CD database file
#
# Track frame offsets:
#	150
#	13797
#	23544
#	36609
#	51651
#	65470
#	82492
#	95238
#	111465
#	128692
#	146434
#	156276
#
# Disc length: 2256 seconds
#
# Revision: 0
# Processed by: cddbd v1.4PL0 Copyright (c) Steve Scherf et al.
# Submitted via: CDex 1.51
#
DISCID=b408ce0c
DTITLE=Little Victor and Sophie Kay - Cookin' With Gas
DYEAR=2000
DGENRE=Jazz
TTITLE0=This Big Road
TTITLE1=No Mail Blues
TTITLE2=Let Your Linen Hang Low
TTITLE3=I Walked From Houston
TTITLE4=Two Days Ago
TTITLE5=Shake Your Boogie
TTITLE6=Nobody's Fault
TTITLE7=Rock Little Daddy
TTITLE8=Run, Walk or Crawl
TTITLE9=Crawdad Hole
TTITLE10=Blues In the Bottle
TTITLE11=Worried Nite 'N' Day
EXTD=YEAR: 2000
EXTT0=
EXTT1=
EXTT2=
EXTT3=
EXTT4=
EXTT5=
EXTT6=
EXTT7=
EXTT8=
EXTT9=
EXTT10=
EXTT11=
PLAYORDER=
